HIERARCHY
ROOT Hips
{
	OFFSET 0.000000 0.000000 0.000000 
	CHANNELS 6 Xposition Yposition Zposition Yrotation Zrotation Xrotation 
	JOINT Lumbar
	{
		OFFSET 0.000000 0.000000 0.000000 
		CHANNELS 3 Zrotation Xrotation Yrotation
		JOINT Neck
		{
			OFFSET 0.000000 0.445665 0.000000 
			CHANNELS 3 Zrotation Xrotation Yrotation
			End Site
			{
				OFFSET 0.000000 0.227535 0.000000 
			}
		}
		JOINT RightShoulder
		{
			OFFSET 0.019635 0.377685 0.194865 
			CHANNELS 3 Zrotation Xrotation Yrotation
			JOINT RightElbow
			{
				OFFSET 0.000000 -0.243375 0.000000 
				CHANNELS 2 Zrotation Yrotation
				JOINT RightWrist
				{
					OFFSET 0.000000 -0.264825 0.000000 
					CHANNELS 2 Zrotation Xrotation
					End Site
					{
						OFFSET 0.006600 -0.176220 0.000990 
					}
				}
			}
		}
		JOINT LeftShoulder
		{
			OFFSET 0.019635 0.377685 -0.194865 
			CHANNELS 3 Zrotation Xrotation Yrotation
			JOINT LeftElbow
			{
				OFFSET 0.000000 -0.243375 0.000000 
				CHANNELS 2 Zrotation Yrotation
				JOINT LeftWrist
				{
					OFFSET 0.000000 -0.264825 0.000000 
					CHANNELS 2 Zrotation Xrotation
					End Site
					{
						OFFSET 0.006600 -0.176220 -0.000990 
					}
				}
			}
		}
	}
	JOINT RightHip
	{
		OFFSET 0.052140 -0.069960 0.075570 
		CHANNELS 3 Zrotation Xrotation Yrotation
		JOINT RightKnee
		{
			OFFSET 0.000000 -0.402270 0.000000 
			CHANNELS 1 Zrotation
			JOINT RightAnkle
			{
				OFFSET 0.000000 -0.404085 0.000000 
				CHANNELS 3 Zrotation Xrotation Yrotation
				End Site
				{
					OFFSET 0.204105 -0.089430 0.008415 
				}
			}
		}
	}
	JOINT LeftHip
	{
		OFFSET 0.052140 -0.069960 -0.075570 
		CHANNELS 3 Zrotation Xrotation Yrotation
		JOINT LeftKnee
		{
			OFFSET 0.000000 -0.402270 0.000000 
			CHANNELS 1 Zrotation
			JOINT LeftAnkle
			{
				OFFSET 0.000000 -0.404085 0.000000 
				CHANNELS 3 Zrotation Xrotation Yrotation
				End Site
				{
					OFFSET 0.204105 -0.089430 -0.008415 
				}
			}
		}
	}
}
MOTION
Frames: 24
Frame Time: 0.02
0.23835 -0.42673 0.03449 28.00365 -18.51854 7.12966 16.60203 -3.21618 7.79677 -4.69117 -6.67395 -2.10239 166.38691 -171.25707 -87.14685 134.3013 139.26441 -63.6075 -11.26029 63.84407 29.18552 -9.30727 116.54276 -80.43102 -4.8443 1.46018 41.35335 -11.53024 -2.69865 -138.81526 -5.43347 -2.04748 -3.17609 120.92747 8.53556 -0.84844 -127.87937 -5.92847 0.8773 2.64366
0.23842 -0.42668 0.03435 28.01884 -18.19731 7.06073 16.21699 -3.16883 7.6763 -4.67286 -6.67672 -2.10284 166.38691 -171.25707 -87.14685 134.3013 139.27677 -63.60181 -11.26172 63.81121 29.159 -9.27378 116.48831 -80.59488 -4.76781 1.54388 40.91016 -11.50592 -2.7803 -138.71799 -5.43361 -2.04634 -3.17549 120.56309 8.51366 -0.85088 -127.92042 -5.9298 0.87592 2.64326
0.23852 -0.42664 0.0342 28.03989 -17.6471 6.94981 15.59917 -3.09226 7.51884 -4.64011 -6.67688 -2.10339 166.38691 -171.25707 -87.14685 134.3013 139.29238 -63.59587 -11.26667 63.79358 29.12801 -9.24221 116.42377 -80.55715 -4.78131 1.48352 40.16589 -11.46676 -2.92387 -138.56299 -5.43376 -2.0452 -3.17477 119.94374 8.4788 -0.86126 -127.9834 -5.92774 0.87177 2.64165
0.2386 -0.4266 0.03405 28.05756 -17.2227 6.86073 15.10724 -3.03155 7.38253 -4.61297 -6.6777 -2.10388 166.38691 -171.25707 -87.14685 134.3013 139.30664 -63.59166 -11.27021 63.76873 29.10028 -9.20997 116.36596 -80.61759 -4.75345 1.49301 39.58669 -11.43612 -3.03346 -138.44 -5.43391 -2.04397 -3.17406 119.46557 8.45055 -0.86743 -128.03521 -5.92834 0.86938 2.64085
0.2387 -0.42655 0.03391 28.07789 -16.71275 6.76108 14.53757 -2.96064 7.22895 -4.59007 -6.68058 -2.10444 166.38691 -171.25707 -87.14685 134.3013 139.3208 -63.58035 -11.27326 63.74651 29.06754 -9.17718 116.2987 -80.66482 -4.72482 1.48895 38.89609 -11.39821 -3.16565 -138.29373 -5.43401 -2.04312 -3.17354 118.88709 8.42033 -0.87573 -128.09177 -5.93446 0.86837 2.64089
0.23876 -0.42652 0.03374 28.09425 -16.32579 6.6731 14.07289 -2.90398 7.10237 -4.55454 -6.6787 -2.10488 166.38691 -171.25707 -87.14685 134.3013 139.33533 -63.58443 -11.2777 63.72102 29.04439 -9.14562 116.24906 -80.68636 -4.72018 1.4769 38.36512 -11.37179 -3.26603 -138.18225 -5.43423 -2.0415 -3.17261 118.45647 8.39 -0.8819 -128.14365 -5.91538 0.85949 2.63651
0.2387 -0.42657 0.0335 28.09777 -16.31433 6.62689 13.94108 -2.89108 7.05672 -4.49124 -6.66337 -2.10498 166.38691 -171.25707 -87.14685 134.3013 139.35437 -63.62506 -11.28957 63.69282 29.04537 -9.12018 116.24792 -80.6833 -4.76016 1.47915 38.32179 -11.38117 -3.26652 -138.17539 -5.43479 -2.03765 -3.17044 118.47122 8.37109 -0.87714 -128.17878 -5.94594 0.86883 2.64199
0.2386 -0.42665 0.03322 28.09723 -16.43672 6.5937 13.92393 -2.89386 7.03982 -4.41515 -6.64357 -2.10496 166.38691 -171.25707 -87.14685 134.3013 139.37194 -63.68277 -11.30193 63.65818 29.05667 -9.09534 116.26499 -80.65973 -4.82148 1.4774 38.45249 -11.40252 -3.23275 -138.20622 -5.43547 -2.03305 -3.16788 118.64659 8.35053 -0.87071 -128.2083 -5.93465 0.86464 2.64001
0.23851 -0.42671 0.03296 28.09889 -16.51041 6.55507 13.86283 -2.89114 7.01138 -4.34251 -6.6264 -2.10499 166.38691 -171.25707 -87.14685 134.3013 139.38862 -63.7359 -11.31119 63.62075 29.06555 -9.06808 116.27602 -80.64551 -4.87322 1.47611 38.52036 -11.41804 -3.2128 -138.22333 -5.43608 -2.02891 -3.16558 118.7643 8.32553 -0.86688 -128.23936 -5.85786 0.83877 2.62591
0.23845 -0.42677 0.03271 28.09925 -16.52679 6.51364 13.76116 -2.8807 6.97532 -4.27908 -6.60645 -2.10501 166.38692 -171.25707 -87.14685 134.3013 139.41591 -63.77349 -11.33269 63.61089 29.06501 -9.04983 116.27896 -80.6247 -4.92764 1.47574 38.51159 -11.43463 -3.20182 -138.22452 -5.43675 -2.02431 -3.16296 118.81032 8.32346 -0.85492 -128.27511 -6.11515 0.92349 2.67314
0.23831 -0.42685 0.03242 28.10127 -16.69512 6.48087 13.77193 -2.89023 6.96229 -4.19394 -6.59144 -2.10503 166.38691 -171.25707 -87.14685 134.30129 139.41581 -63.85015 -11.32881 63.53825 29.08619 -9.01308 116.30106 -80.61496 -4.98027 1.47419 38.70473 -11.45213 -3.1639 -138.26799 -5.43732 -2.02045 -3.16088 119.04483 8.27155 -0.8602 -128.2999 -5.6951 0.78323 2.59604
0.23791 -0.42702 0.03208 28.1091 -17.26964 6.47565 14.08558 -2.95296 7.00715 -4.04925 -6.58983 -2.10507 166.38689 -171.25705 -87.14683 134.30129 139.37761 -64.00868 -11.25778 63.32406 29.16854 -8.92475 116.38874 -80.64423 -5.02331 1.47245 39.43894 -11.46829 -3.05387 -138.42401 -5.43757 -2.01908 -3.16048 119.78102 8.09929 -0.90591 -128.29211 -3.15888 -0.05758 2.12996
0.23742 -0.42722 0.03171 28.11869 -17.9899 6.47751 14.5057 -3.03502 7.07407 -3.88371 -6.59371 -2.10511 166.38687 -171.25703 -87.14681 134.30128 139.30165 -64.21056 -11.16304 63.04085 29.27173 -8.81838 116.4911 -80.68575 -5.06317 1.46998 40.36672 -11.48519 -2.91875 -138.62047 -5.43774 -2.01844 -3.1606 120.69866 7.87447 -0.97 -128.27411 0.01834 -1.11536 1.54573
0.23697 -0.42741 0.03135 28.12732 -18.63204 6.47201 14.86485 -3.1071 7.13021 -3.72961 -6.59586 -2.10514 166.38685 -171.25703 -87.14679 134.30127 139.22277 -64.40621 -11.074 62.76976 29.36297 -8.71983 116.57658 -80.72033 -5.10376 1.46722 41.19053 -11.50246 -2.7988 -138.79558 -5.43797 -2.01731 -3.16039 121.52123 7.66191 -1.03114 -128.26303 2.72321 -2.0114 1.04949
0.23651 -0.42759 0.03103 28.13647 -19.3293 6.48491 15.28117 -3.18474 7.19067 -3.56688 -6.59424 -2.10518 166.38682 -171.25699 -87.14676 134.30126 139.24212 -64.54333 -10.99637 62.58108 29.46505 -8.62074 116.70914 -80.7596 -5.14852 1.46691 42.0887 -11.51723 -2.66179 -138.9851 -5.43809 -2.01682 -3.16059 122.40302 7.49577 -1.0711 -128.24196 6.15846 -3.14796 0.41706
0.23607 -0.42778 0.0306 28.14502 -19.94413 6.46043 15.60199 -3.25524 7.24681 -3.41721 -6.6023 -2.10521 166.3868 -171.25697 -87.14674 134.30125 139.031 -64.81524 -10.90193 62.20271 29.54935 -8.52122 116.7427 -80.79265 -5.1831 1.46132 42.87457 -11.53715 -2.55481 -139.15299 -5.43841 -2.01516 -3.16006 123.20179 7.22373 -1.15745 -128.2396 8.26853 -3.86817 0.0292
0.23567 -0.42803 0.02992 28.15147 -20.30019 6.33577 15.63593 -3.30102 7.28659 -3.31013 -6.63179 -2.10524 166.3868 -171.25706 -87.14674 134.30125 138.3408 -65.4228 -10.65532 61.33147 29.57946 -8.40242 116.53443 -80.80266 -5.19381 1.44196 43.31275 -11.57175 -2.53669 -139.25643 -5.43928 -2.01023 -3.15747 123.73206 6.64712 -1.38385 -128.28884 6.16745 -3.08447 0.44507
0.2353 -0.42829 0.02911 28.15734 -20.56711 6.17232 15.56964 -3.33912 7.32058 -3.21676 -6.6717 -2.10526 166.3868 -171.25679 -87.14675 134.30125 137.39483 -66.16788 -10.41076 60.26867 29.59088 -8.28861 116.21902 -80.80656 -5.19355 1.41716 43.62874 -11.61138 -2.54975 -139.33491 -5.44036 -2.00406 -3.15413 124.17046 5.97243 -1.65203 -128.35752 2.77472 -1.91937 1.09543
0.23491 -0.42853 0.02834 28.16343 -20.87084 6.02342 15.54599 -3.38059 7.35691 -3.11624 -6.70929 -2.10528 166.38681 -171.25718 -87.14675 134.30125 136.46566 -66.86867 -10.24179 59.28501 29.61085 -8.18654 115.92996 -80.81534 -5.196 1.39454 43.99324 -11.64817 -2.54898 -139.42202 -5.44134 -1.99838 -3.15112 124.64714 5.35651 -1.89186 -128.41932 0.24416 -1.14033 1.56966
0.23452 -0.42881 0.02768 28.16953 -21.19403 5.8877 15.53582 -3.42244 7.39673 -3.01877 -6.73634 -2.1053 166.38681 -171.25709 -87.14676 134.30125 135.94467 -67.49976 -9.7599 58.33425 29.63142 -8.02228 115.73713 -80.81597 -5.20823 1.3734 44.39356 -11.6871 -2.54634 -139.52461 -5.44229 -1.99308 -3.14821 125.14616 4.67061 -2.17685 -128.47355 -3.38698 0.48383 2.32191
0.23416 -0.42902 0.02676 28.17576 -21.45525 5.71531 15.47563 -3.46241 7.42577 -2.9186 -6.78839 -2.10532 166.38681 -171.25587 -87.14676 134.30125 134.52618 -68.30102 -9.91683 57.26798 29.6459 -7.99201 115.3165 -80.83156 -5.19719 1.34753 44.68854 -11.72305 -2.55474 -139.58525 -5.44338 -1.98662 -3.14487 125.57287 4.11817 -2.3712 -128.54701 -5.08947 0.49809 2.56681
0.23384 -0.42914 0.02525 28.17932 -21.55193 5.45032 15.27288 -3.49034 7.44246 -2.8065 -6.90162 -2.10537 166.38682 -171.25952 -87.14677 134.30125 130.57974 -69.59978 -11.95645 55.9497 29.64941 -8.30453 114.30826 -80.89393 -5.12711 1.31232 44.71441 -11.74671 -2.59115 -139.56317 -5.44468 -1.9779 -3.14083 125.83392 3.86411 -2.36163 -128.67912 -0.73324 -4.52161 1.22834
0.23356 -0.42916 0.02348 28.18328 -21.5913 5.14987 15.02796 -3.51801 7.44558 -2.69138 -7.04065 -2.10543 166.38683 -171.25394 -87.14678 134.30125 125.75961 -71.05365 -14.61729 54.51798 29.64718 -8.75644 113.07211 -80.97104 -5.03323 1.27151 44.63914 -11.76763 -2.63663 -139.49402 -5.44614 -1.96796 -3.13634 126.02176 3.76121 -2.251 -128.82756 5.52917 -11.08619 -0.60555
0.23329 -0.42915 0.02179 28.18951 -21.66627 4.86622 14.82096 -3.55163 7.4441 -2.57865 -7.17127 -2.10548 166.38683 -171.25582 -87.14679 134.30125 121.41385 -72.39586 -16.91503 53.12583 29.64656 -9.16196 111.92957 -81.03838 -4.94901 1.23248 44.61434 -11.79175 -2.67487 -139.42911 -5.44762 -1.95817 -3.13187 126.2353 3.65669 -2.14655 -128.96247 10.63999 -16.61119 -2.12915
